Coordinates
version=1
nRows=24
nColumns=24
inDegrees=yes

Units are S.I. units (second, meters, Newtons, ...)
Angles are in degrees.

endheader
time	pelvis_tilt	pelvis_list	pelvis_rotation	pelvis_tx	pelvis_ty	pelvis_tz	hip_flexion_r	hip_adduction_r	hip_rotation_r	knee_angle_r	ankle_angle_r	subtalar_angle_r	mtp_angle_r	hip_flexion_l	hip_adduction_l	hip_rotation_l	knee_angle_l	ankle_angle_l	subtalar_angle_l	mtp_angle_l	lumbar_extension	lumbar_bending	lumbar_rotation
      3.39000000	    -11.63399848	     -3.08632209	     -5.55142331	     -1.34845838	     -0.01878477	     -0.24900671	      6.72984431	      7.09979001	      2.89988187	    -10.99535783	      6.68567472	     -8.64764047	     13.28025133	     37.82795192	     -7.09092828	     -8.26901179	    -48.65870583	     -4.48493001	    -10.15150775	     10.65035453	      5.61666131	      4.66575725	      3.38797669
      3.39500000	    -11.66173036	     -2.96336094	     -5.75863013	     -1.34152854	     -0.01943870	     -0.24867919	      6.13831017	      6.95956572	      3.05414302	    -10.66185657	      6.92011926	     -8.55591853	     13.25580510	     38.19501373	     -7.05099499	     -8.35666642	    -47.26131561	     -4.37451283	     -9.64096490	     10.71008459	      5.59179271	      4.55126872	      3.60139994
      3.40000000	    -11.69998533	     -2.83998515	     -5.96450366	     -1.33460142	     -0.02013960	     -0.24837481	      5.56629326	      6.81505267	      3.19608329	    -10.33954362	      7.13864025	     -8.46541967	     13.23316101	     38.54402185	     -7.01592101	     -8.43995548	    -45.81459294	     -4.27451170	     -9.11644298	     10.75250018	      5.57651331	      4.44027640	      3.80804550
      3.40500000	    -11.75023801	     -2.71848054	     -6.16858998	     -1.32767711	     -0.02089867	     -0.24809320	      5.01367062	      6.66984668	      3.31985313	    -10.02547977	      7.35102315	     -8.37908307	     13.21425203	     38.87717545	     -6.98572618	     -8.51462188	    -44.32318517	     -4.17381688	     -8.60093637	     10.76901409	      5.57191640	      4.33372857	      4.01481875
      3.41000000	    -11.88097012	     -2.61883530	     -6.31313735	     -1.32075903	     -0.02181654	     -0.24792474	      4.55271430	      6.54919604	      3.36704686	     -9.71399796	      7.53611272	     -8.35760686	     13.21144897	     39.29480666	     -6.93042845	     -8.47264581	    -42.80753882	     -4.12522007	     -8.15449098	     10.75594034	      5.65199049	      4.25121791	      4.18208729
      3.41500000	    -11.85946567	     -2.47381503	     -6.58623981	     -1.31386731	     -0.02253287	     -0.24751862	      3.94672998	      6.37284819	      3.50959680	     -9.43793118	      7.76513721	     -8.17730089	     13.20356949	     39.46365018	     -6.95211966	     -8.67012625	    -41.22059016	     -3.98539235	     -7.59816169	     10.70608667	      5.56210707	      4.11109922	      4.47587996
      3.42000000	    -11.98162462	     -2.35889351	     -6.74201582	     -1.30697739	     -0.02348218	     -0.24730616	      3.50472042	      6.23658644	      3.51561239	     -9.17001051	      7.93155725	     -8.13624121	     13.19281230	     39.80211277	     -6.90924265	     -8.65663719	    -39.61807831	     -3.93898781	     -7.16861199	     10.63357553	      5.62785688	      4.00561567	      4.63377298
      3.42500000	    -11.96130818	     -2.20603236	     -6.99555565	     -1.30008975	     -0.02427295	     -0.24698973	      2.91697995	      6.04041637	      3.54118378	     -8.91124980	      8.17929009	     -7.91641618	     13.17712335	     39.91690394	     -6.90233884	     -8.81155925	    -37.96847090	     -3.80941439	     -6.75056235	     10.40810462	      5.53389283	      3.86064632	      4.96246373
      3.43000000	    -12.00264489	     -2.05560162	     -7.19002081	     -1.29318716	     -0.02516887	     -0.24672922	      2.40711426	      5.85228354	      3.46614722	     -8.66952132	      8.41062281	     -7.72228507	     13.14475325	     40.08990659	     -6.86122968	     -8.88302378	    -36.30847798	     -3.70707401	     -6.38633315	     10.04629813	      5.51268708	      3.70969490	      5.20256712
      3.43500000	    -12.05106756	     -1.90250625	     -7.38231479	     -1.28629080	     -0.02609244	     -0.24646061	      1.92003378	      5.66322166	      3.32760946	     -8.45072973	      8.64725479	     -7.49320801	     13.10814750	     40.24885263	     -6.82058084	     -8.94183120	    -34.64584023	     -3.59349562	     -6.06227894	      9.51984587	      5.49620110	      3.55043733	      5.45055142
      3.44000000	    -12.21821753	     -1.79192640	     -7.52032024	     -1.27938893	     -0.02720979	     -0.24621114	      1.55794744	      5.54692870	      3.17757176	     -8.23095395	      8.77940725	     -7.46100286	     13.08989278	     40.54541359	     -6.80706025	     -8.90507849	    -33.00935812	     -3.55169183	     -5.76016880	      9.29297260	      5.60614526	      3.43728303	      5.59386612
      3.44500000	    -12.16881602	     -1.59565384	     -7.74702044	     -1.27249162	     -0.02802498	     -0.24595116	      0.99872002	      5.29159944	      2.91601186	     -8.05552616	      9.07688452	     -7.05180907	     13.08560000	     40.53429871	     -6.73965333	     -9.01644854	    -31.33268051	     -3.45513080	     -5.62825641	      8.50534371	      5.48434164	      3.22793042	      5.93684936
      3.45000000	    -12.17886762	     -1.45475345	     -7.79929473	     -1.26548267	     -0.02899591	     -0.24587818	      0.48463352	      5.09889209	      2.40624388	     -7.87081032	      9.37650638	     -6.60974735	     12.96181469	     40.63899812	     -6.61652717	     -8.89176906	    -29.81753623	     -2.93567467	     -5.13377311	      6.25081150	      5.43803862	      3.05269228	      6.02275520
      3.45500000	    -12.36968234	     -1.29979064	     -8.02304234	     -1.25857710	     -0.03011840	     -0.24551091	      0.18929484	      4.95161807	      2.31496205	     -7.70727017	      9.44422766	     -6.62928889	     12.93457101	     40.89624181	     -6.63638486	     -8.94062056	    -28.23653766	     -3.01987531	     -5.13960337	      5.86767179	      5.57509782	      2.89923554	      6.32125867
      3.46000000	    -12.43327065	     -1.12967766	     -8.13791382	     -1.25160622	     -0.03113649	     -0.24539725	     -0.20544468	      4.74370145	      1.81573966	     -7.61849255	      9.71090905	     -6.22965890	     12.85932303	     41.03450959	     -6.53254312	     -8.82105366	    -26.82221703	     -2.44779670	     -4.80080624	      2.93235911	      5.57760911	      2.70833233	      6.50789692
      3.46500000	    -12.45777025	     -0.95900119	     -8.32358865	     -1.24463962	     -0.03209035	     -0.24507158	     -0.65534086	      4.55020780	      1.57560738	     -7.49774691	      9.78633693	     -6.15475666	     12.85392183	     41.08446449	     -6.50799674	     -8.84357728	    -25.33007323	     -2.52752364	     -4.82595655	      2.63286304	      5.53898215	      2.50054806	      6.77351668
      3.47000000	    -12.47497442	     -0.77751645	     -8.46291886	     -1.23760254	     -0.03304845	     -0.24486310	     -1.08796323	      4.32985685	      1.16537039	     -7.42679798	      9.93078282	     -5.89228793	     12.87697425	     41.12823990	     -6.43585301	     -8.80188237	    -23.91140030	     -2.59863121	     -4.87514692	      2.10596260	      5.50208646	      2.28070975	      6.99597757
      3.47500000	    -12.49076379	     -0.59031177	     -8.60050043	     -1.23050620	     -0.03400780	     -0.24467181	     -1.50504450	      4.09883265	      0.74073144	     -7.38951422	     10.06224894	     -5.61511715	     12.90637167	     41.16915601	     -6.36194166	     -8.76260369	    -22.58248473	     -2.62808608	     -4.91109846	      1.36819633	      5.47000129	      2.05098699	      7.21727998
      3.48000000	    -12.59067230	     -0.41838196	     -8.68964770	     -1.22332062	     -0.03508700	     -0.24457760	     -1.81743860	      3.89060643	      0.22863019	     -7.38762755	     10.17475065	     -5.31143088	     13.03283376	     41.35346358	     -6.28490561	     -8.66919970	    -21.51385819	     -1.97786093	     -4.53559079	     -1.97875737	      5.53903347	      1.84475125	      7.36642916
      3.48500000	    -12.58212795	     -0.23004830	     -8.84998406	     -1.21613356	     -0.03600992	     -0.24434923	     -2.24193628	      3.65371266	     -0.02477433	     -7.38876671	     10.16883703	     -5.23771958	     13.03890751	     41.35449158	     -6.24130505	     -8.69149203	    -20.33688347	     -2.12208654	     -4.60929648	     -2.20882293	      5.49224286	      1.60727150	      7.61312151
      3.49000000	    -12.57531201	     -0.02227252	     -8.99324852	     -1.20882901	     -0.03693614	     -0.24419030	     -2.63201155	      3.37947748	     -0.39445214	     -7.45487481	     10.21888375	     -4.99203056	     13.09625881	     41.35690086	     -6.17250373	     -8.76300109	    -19.25765291	     -2.23853972	     -4.64692036	     -2.52547344	      5.46400623	      1.34855605	      7.84015404
      3.49500000	    -12.56558534	      0.18893374	     -9.13666216	     -1.20143429	     -0.03785370	     -0.24406179	     -3.01050442	      3.09060491	     -0.74911998	     -7.55204932	     10.24155619	     -4.73633510	     13.17937746	     41.35340288	     -6.10393526	     -8.87623159	    -18.27960258	     -2.32716566	     -4.65410256	     -2.88194688	      5.44566395	      1.08710248	      8.06628646
      3.50000000	    -12.54710284	      0.40269236	     -9.27943272	     -1.19395410	     -0.03875347	     -0.24398867	     -3.37504224	      2.78463119	     -1.08324488	     -7.69779924	     10.23202678	     -4.47735331	     13.29183216	     41.33595955	     -6.03266406	     -9.04646976	    -17.40035944	     -2.37725004	     -4.62578843	     -3.24025759	      5.42811914	      0.82930657	      8.29055419
      3.50500000	    -12.47454341	      0.61309444	     -9.36781295	     -1.18634543	     -0.03959631	     -0.24401904	     -3.79414969	      2.45931322	     -1.51667377	     -7.85731385	     10.18051315	     -4.15944824	     13.54795556	     41.26440651	     -5.91873257	     -9.24645304	    -16.63271480	     -2.33996076	     -4.54222056	     -3.82226429	      5.36602892	      0.55871760	      8.43574296
